<?xml version="1.0" encoding="UTF-8" standalone="no"?>
<!-- Created with Inkscape (http://www.inkscape.org/) -->

<svg
   xmlns:dc="http://purl.org/dc/elements/1.1/"
   xmlns:cc="http://creativecommons.org/ns#"
   xmlns:rdf="http://www.w3.org/1999/02/22-rdf-syntax-ns#"
   xmlns:svg="http://www.w3.org/2000/svg"
   xmlns="http://www.w3.org/2000/svg"
   xmlns:sodipodi="http://sodipodi.sourceforge.net/DTD/sodipodi-0.dtd"
   xmlns:inkscape="http://www.inkscape.org/namespaces/inkscape"
   width="188.90703mm"
   height="61.294449mm"
   viewBox="0 0 188.90703 61.294449"
   version="1.1"
   id="svg8"
   inkscape:version="0.92.5 (2060ec1f9f, 2020-04-08)"
   sodipodi:docname="appcontrol-logo-fin.svg"
   inkscape:export-filename="/home/wim/appcontrol-logos/appcontrol-logo-fin.png"
   inkscape:export-xdpi="200"
   inkscape:export-ydpi="200">
  <defs
     id="defs2" />
  <sodipodi:namedview
     id="base"
     pagecolor="#ffffff"
     bordercolor="#666666"
     borderopacity="1.0"
     inkscape:pageopacity="0.0"
     inkscape:pageshadow="2"
     inkscape:zoom="1"
     inkscape:cx="339.41692"
     inkscape:cy="115.83203"
     inkscape:document-units="mm"
     inkscape:current-layer="g915"
     showgrid="false"
     inkscape:window-width="2560"
     inkscape:window-height="1313"
     inkscape:window-x="1920"
     inkscape:window-y="34"
     inkscape:window-maximized="1"
     showguides="false"
     inkscape:guide-bbox="true"
     fit-margin-top="0"
     fit-margin-left="0"
     fit-margin-right="0"
     fit-margin-bottom="0">
    <sodipodi:guide
       position="-240.17018,-3.6229383"
       orientation="1,0"
       id="guide1283"
       inkscape:locked="false" />
    <sodipodi:guide
       position="-96.430622,-68.845067"
       orientation="1,0"
       id="guide862"
       inkscape:locked="false" />
    <sodipodi:guide
       position="-80.819792,-54.621866"
       orientation="1,0"
       id="guide864"
       inkscape:locked="false" />
    <sodipodi:guide
       position="-65.440234,-51.846607"
       orientation="1,0"
       id="guide866"
       inkscape:locked="false" />
    <sodipodi:guide
       position="-49.713768,-99.719819"
       orientation="1,0"
       id="guide868"
       inkscape:locked="false" />
    <sodipodi:guide
       position="7.7425187,-68.75345"
       orientation="0,1"
       id="guide870"
       inkscape:locked="false" />
    <sodipodi:guide
       position="29.171219,-86.205688"
       orientation="0,1"
       id="guide872"
       inkscape:locked="false" />
    <sodipodi:guide
       position="36.387759,-63.6356"
       orientation="0,1"
       id="guide874"
       inkscape:locked="false" />
    <sodipodi:guide
       position="14.495969,-99.164027"
       orientation="0,1"
       id="guide876"
       inkscape:locked="false" />
    <sodipodi:guide
       position="-8.2678793,-116.44854"
       orientation="0,1"
       id="guide878"
       inkscape:locked="false" />
    <sodipodi:guide
       position="-17.639656,-55.072582"
       orientation="0,1"
       id="guide888"
       inkscape:locked="false" />
  </sodipodi:namedview>
  <metadata
     id="metadata5">
    <rdf:RDF>
      <cc:Work
         rdf:about="">
        <dc:format>image/svg+xml</dc:format>
        <dc:type
           rdf:resource="http://purl.org/dc/dcmitype/StillImage" />
        <dc:title />
      </cc:Work>
    </rdf:RDF>
  </metadata>
  <g
     inkscape:label="Layer 1"
     inkscape:groupmode="layer"
     id="layer1"
     transform="translate(-115.77468,12.976528)">
    <g
       id="g884"
       transform="matrix(-1,0,0,1,293.34404,0)">
      <path
         inkscape:connector-curvature="0"
         id="rect815-3"
         d="M 131.27503,2.5233022 V 17.817972 h 15.29416 V 2.5233022 Z m 7.70857,2.44223 c 2.74958,0 4.9997,2.25063 4.9997,5.00021 0,2.7495798 -2.25012,5.0002098 -4.9997,5.0002098 -2.74958,0 -5.00021,-2.25063 -5.00021,-5.0002098 0,-2.74958 2.25063,-5.00021 5.00021,-5.00021 z m 0,2.00039 c -1.6687,0 -3.00033,1.33112 -3.00033,2.99982 0,1.6686998 1.33163,2.9998198 3.00033,2.9998198 1.6687,0 2.99982,-1.33112 2.99982,-2.9998198 0,-1.6687 -1.33112,-2.99982 -2.99982,-2.99982 z"
         style="opacity:1;fill:#003366;fill-opacity:1;stroke:none;stroke-width:0.70555562;stroke-linecap:butt;stroke-linejoin:bevel;stroke-miterlimit:4;stroke-dasharray:none;stroke-dashoffset:0;stroke-opacity:1" />
      <path
         inkscape:connector-curvature="0"
         id="path833"
         d="M 115.77468,-12.976528 V 2.3181422 h 15.29468 V -12.976528 Z m 6.59805,2.15542 h 1.99988 v 9.99991016 h -1.99988 z"
         style="opacity:1;fill:#003366;fill-opacity:1;stroke:none;stroke-width:0.70555562;stroke-linecap:butt;stroke-linejoin:bevel;stroke-miterlimit:4;stroke-dasharray:none;stroke-dashoffset:0;stroke-opacity:1" />
      <path
         inkscape:connector-curvature="0"
         id="path835"
         d="M 162.27469,2.5233022 V 17.817972 h 15.29467 V 2.5233022 Z m 7.81451,2.44223 c 2.74958,0 5.00021,2.25063 5.00021,5.00021 0,2.7495798 -2.25063,5.0002098 -5.00021,5.0002098 -2.74958,0 -4.9997,-2.25063 -4.9997,-5.0002098 0,-2.74958 2.25012,-5.00021 4.9997,-5.00021 z m 0,2.00039 c -1.6687,0 -2.99982,1.33112 -2.99982,2.99982 0,1.6686998 1.33112,2.9998198 2.99982,2.9998198 1.6687,0 3.00033,-1.33112 3.00033,-2.9998198 0,-1.6687 -1.33163,-2.99982 -3.00033,-2.99982 z"
         style="opacity:1;fill:#003366;fill-opacity:1;stroke:none;stroke-width:0.70555562;stroke-linecap:butt;stroke-linejoin:bevel;stroke-miterlimit:4;stroke-dasharray:none;stroke-dashoffset:0;stroke-opacity:1" />
      <path
         inkscape:connector-curvature="0"
         id="path837"
         d="M 146.77486,-12.976528 V 2.3181422 h 15.29416 V -12.976528 Z m 7.58817,2.15542 c 2.74958,0 4.99969,2.2501302 4.99969,4.9997002 0,2.74958 -2.25011,5.00020996 -4.99969,5.00020996 -2.74958,0 -5.00022,-2.25062996 -5.00022,-5.00020996 0,-2.74957 2.25064,-4.9997002 5.00022,-4.9997002 z m 0,1.9998802 c -1.6687,0 -2.99982,1.33113 -2.99982,2.99982 0,1.6687 1.33112,3.00033 2.99982,3.00033 1.66869,0 2.99981,-1.33163 2.99981,-3.00033 0,-1.66869 -1.33112,-2.99982 -2.99981,-2.99982 z"
         style="opacity:1;fill:#003366;fill-opacity:1;stroke:none;stroke-width:0.70555562;stroke-linecap:butt;stroke-linejoin:bevel;stroke-miterlimit:4;stroke-dasharray:none;stroke-dashoffset:0;stroke-opacity:1" />
      <path
         inkscape:connector-curvature="0"
         id="path858"
         d="m 131.27503,33.023252 v 15.29467 h 15.29416 v -15.29467 z m 7.70857,2.46651 c 2.74958,0 4.9997,2.25063 4.9997,5.00021 0,2.74958 -2.25012,4.9997 -4.9997,4.9997 -2.74958,0 -5.00021,-2.25012 -5.00021,-4.9997 0,-2.74958 2.25063,-5.00021 5.00021,-5.00021 z m 0,1.99988 c -1.6687,0 -3.00033,1.33163 -3.00033,3.00033 0,1.6687 1.33163,2.99982 3.00033,2.99982 1.6687,0 2.99982,-1.33112 2.99982,-2.99982 0,-1.6687 -1.33112,-3.00033 -2.99982,-3.00033 z"
         style="opacity:1;fill:#003366;fill-opacity:1;stroke:none;stroke-width:0.70555562;stroke-linecap:butt;stroke-linejoin:bevel;stroke-miterlimit:4;stroke-dasharray:none;stroke-dashoffset:0;stroke-opacity:1" />
      <path
         inkscape:connector-curvature="0"
         id="path860"
         d="m 115.77468,17.523422 v 15.29467 h 15.29468 v -15.29467 z m 7.59799,2.35954 c 2.74958,0 4.99969,2.25063 4.99969,5.00021 0,2.74958 -2.25011,5.00022 -4.99969,5.00022 -2.74958,0 -5.00021,-2.25064 -5.00021,-5.00022 0,-2.74958 2.25063,-5.00021 5.00021,-5.00021 z m 0,2.0004 c -1.6687,0 -3.00033,1.33112 -3.00033,2.99981 0,1.6687 1.33163,2.99982 3.00033,2.99982 1.6687,0 2.99982,-1.33112 2.99982,-2.99982 0,-1.66869 -1.33112,-2.99981 -2.99982,-2.99981 z"
         style="opacity:1;fill:#003366;fill-opacity:1;stroke:none;stroke-width:0.70555562;stroke-linecap:butt;stroke-linejoin:bevel;stroke-miterlimit:4;stroke-dasharray:none;stroke-dashoffset:0;stroke-opacity:1" />
      <path
         inkscape:connector-curvature="0"
         id="path862"
         d="m 162.27469,33.023252 v 15.29467 h 15.29467 v -15.29467 z m 6.81457,2.46651 h 2.00039 v 9.99991 h -2.00039 z"
         style="opacity:1;fill:#003366;fill-opacity:1;stroke:none;stroke-width:0.70555562;stroke-linecap:butt;stroke-linejoin:bevel;stroke-miterlimit:4;stroke-dasharray:none;stroke-dashoffset:0;stroke-opacity:1" />
      <path
         inkscape:connector-curvature="0"
         id="path864"
         d="m 146.77486,17.523422 v 15.29467 h 15.29416 v -15.29467 z m 7.58817,2.35954 c 2.74958,0 4.99969,2.25063 4.99969,5.00021 0,2.74958 -2.25011,5.00022 -4.99969,5.00022 -2.74958,0 -5.00022,-2.25064 -5.00022,-5.00022 0,-2.74958 2.25064,-5.00021 5.00022,-5.00021 z m 0,2.0004 c -1.6687,0 -2.99982,1.33112 -2.99982,2.99981 0,1.6687 1.33112,2.99982 2.99982,2.99982 1.66869,0 2.99981,-1.33112 2.99981,-2.99982 0,-1.66869 -1.33112,-2.99981 -2.99981,-2.99981 z"
         style="opacity:1;fill:#003366;fill-opacity:1;stroke:none;stroke-width:0.70555562;stroke-linecap:butt;stroke-linejoin:bevel;stroke-miterlimit:4;stroke-dasharray:none;stroke-dashoffset:0;stroke-opacity:1" />
      <rect
         y="-10.8212"
         x="137.9834"
         height="10"
         width="2"
         id="rect866"
         style="opacity:1;fill:#003366;fill-opacity:1;stroke:none;stroke-width:0.70555556;stroke-linecap:butt;stroke-linejoin:bevel;stroke-miterlimit:4;stroke-dasharray:none;stroke-dashoffset:0;stroke-opacity:1" />
      <path
         inkscape:connector-curvature="0"
         id="path868"
         d="m 170.08943,-10.821198 c -2.74958,0 -5,2.2504202 -5,5.0000002 0,2.74958 2.25042,4.99999996 5,4.99999996 2.74958,0 5,-2.25041996 5,-4.99999996 0,-2.74958 -2.25042,-5.0000002 -5,-5.0000002 z m 0,2.0000002 c 1.6687,0 3,1.3313 3,3 0,1.6687 -1.3313,3 -3,3 -1.6687,0 -3,-1.3313 -3,-3 0,-1.6687 1.3313,-3 3,-3 z"
         style="color:#000000;font-style:normal;font-variant:normal;font-weight:normal;font-stretch:normal;font-size:medium;line-height:normal;font-family:sans-serif;font-variant-ligatures:normal;font-variant-position:normal;font-variant-caps:normal;font-variant-numeric:normal;font-variant-alternates:normal;font-feature-settings:normal;text-indent:0;text-align:start;text-decoration:none;text-decoration-line:none;text-decoration-style:solid;text-decoration-color:#000000;letter-spacing:normal;word-spacing:normal;text-transform:none;writing-mode:lr-tb;direction:ltr;text-orientation:mixed;dominant-baseline:auto;baseline-shift:baseline;text-anchor:start;white-space:normal;shape-padding:0;clip-rule:nonzero;display:inline;overflow:visible;visibility:visible;opacity:1;isolation:auto;mix-blend-mode:normal;color-interpolation:sRGB;color-interpolation-filters:linearRGB;solid-color:#000000;solid-opacity:1;vector-effect:none;fill:#003366;fill-opacity:1;fill-rule:nonzero;stroke:none;stroke-width:2;stroke-linecap:butt;stroke-linejoin:bevel;stroke-miterlimit:4;stroke-dasharray:none;stroke-dashoffset:0;stroke-opacity:1;color-rendering:auto;image-rendering:auto;shape-rendering:auto;text-rendering:auto;enable-background:accumulate" />
      <rect
         style="opacity:1;fill:#003366;fill-opacity:1;stroke:none;stroke-width:0.70555556;stroke-linecap:butt;stroke-linejoin:bevel;stroke-miterlimit:4;stroke-dasharray:none;stroke-dashoffset:0;stroke-opacity:1"
         id="rect874"
         width="2"
         height="10"
         x="122.37257"
         y="4.9657412" />
      <rect
         style="opacity:1;fill:#003366;fill-opacity:1;stroke:none;stroke-width:0.70555556;stroke-linecap:butt;stroke-linejoin:bevel;stroke-miterlimit:4;stroke-dasharray:none;stroke-dashoffset:0;stroke-opacity:1"
         id="rect880"
         width="2"
         height="10"
         x="137.9834"
         y="20.267424" />
      <path
         inkscape:connector-curvature="0"
         id="circle882"
         d="m 123.37257,35.489732 c -2.74958,0 -5,2.25042 -5,5 0,2.74958 2.25042,5 5,5 2.74958,0 5,-2.25042 5,-5 0,-2.74958 -2.25042,-5 -5,-5 z m 0,2 c 1.6687,0 3,1.3313 3,3 0,1.6687 -1.3313,3 -3,3 -1.66869,0 -3,-1.3313 -3,-3 0,-1.6687 1.33131,-3 3,-3 z"
         style="color:#000000;font-style:normal;font-variant:normal;font-weight:normal;font-stretch:normal;font-size:medium;line-height:normal;font-family:sans-serif;font-variant-ligatures:normal;font-variant-position:normal;font-variant-caps:normal;font-variant-numeric:normal;font-variant-alternates:normal;font-feature-settings:normal;text-indent:0;text-align:start;text-decoration:none;text-decoration-line:none;text-decoration-style:solid;text-decoration-color:#000000;letter-spacing:normal;word-spacing:normal;text-transform:none;writing-mode:lr-tb;direction:ltr;text-orientation:mixed;dominant-baseline:auto;baseline-shift:baseline;text-anchor:start;white-space:normal;shape-padding:0;clip-rule:nonzero;display:inline;overflow:visible;visibility:visible;opacity:1;isolation:auto;mix-blend-mode:normal;color-interpolation:sRGB;color-interpolation-filters:linearRGB;solid-color:#000000;solid-opacity:1;vector-effect:none;fill:#003366;fill-opacity:1;fill-rule:nonzero;stroke:none;stroke-width:2;stroke-linecap:butt;stroke-linejoin:bevel;stroke-miterlimit:4;stroke-dasharray:none;stroke-dashoffset:0;stroke-opacity:1;color-rendering:auto;image-rendering:auto;shape-rendering:auto;text-rendering:auto;enable-background:accumulate" />
      <rect
         y="35.489727"
         x="153.36296"
         height="10"
         width="2"
         id="rect886"
         style="opacity:1;fill:#003366;fill-opacity:1;stroke:none;stroke-width:0.70555556;stroke-linecap:butt;stroke-linejoin:bevel;stroke-miterlimit:4;stroke-dasharray:none;stroke-dashoffset:0;stroke-opacity:1" />
      <rect
         style="opacity:1;fill:#003366;fill-opacity:1;stroke:none;stroke-width:0.70555556;stroke-linecap:butt;stroke-linejoin:bevel;stroke-miterlimit:4;stroke-dasharray:none;stroke-dashoffset:0;stroke-opacity:1"
         id="rect890"
         width="2"
         height="10"
         x="153.36296"
         y="4.9657412" />
      <rect
         y="20.267424"
         x="169.08943"
         height="10"
         width="2"
         id="rect894"
         style="opacity:1;fill:#003366;fill-opacity:1;stroke:none;stroke-width:0.70555556;stroke-linecap:butt;stroke-linejoin:bevel;stroke-miterlimit:4;stroke-dasharray:none;stroke-dashoffset:0;stroke-opacity:1" />
    </g>
    <g
       id="g915"
       transform="translate(105.02852,-116.35024)">
      <path
         inkscape:connector-curvature="0"
         id="circle904"
         d="m 95.923958,110.53754 c -4.818281,0 -8.761853,3.94357 -8.761853,8.76185 0,4.81828 3.943572,8.76185 8.761853,8.76185 4.818282,0 8.761852,-3.94357 8.761852,-8.76185 0,-4.81828 -3.94357,-8.76185 -8.761852,-8.76185 z m 0,3.50474 c 2.924179,0 5.257112,2.33293 5.257112,5.25711 0,2.92418 -2.332933,5.25711 -5.257112,5.25711 -2.924179,0 -5.257112,-2.33293 -5.257112,-5.25711 0,-2.92418 2.332933,-5.25711 5.257112,-5.25711 z"
         style="color:#000000;font-style:normal;font-variant:normal;font-weight:normal;font-stretch:normal;font-size:medium;line-height:normal;font-family:sans-serif;font-variant-ligatures:normal;font-variant-position:normal;font-variant-caps:normal;font-variant-numeric:normal;font-variant-alternates:normal;font-feature-settings:normal;text-indent:0;text-align:start;text-decoration:none;text-decoration-line:none;text-decoration-style:solid;text-decoration-color:#000000;letter-spacing:normal;word-spacing:normal;text-transform:none;writing-mode:lr-tb;direction:ltr;text-orientation:mixed;dominant-baseline:auto;baseline-shift:baseline;text-anchor:start;white-space:normal;shape-padding:0;clip-rule:nonzero;display:inline;overflow:visible;visibility:visible;opacity:1;isolation:auto;mix-blend-mode:normal;color-interpolation:sRGB;color-interpolation-filters:linearRGB;solid-color:#000000;solid-opacity:1;vector-effect:none;fill:#003366;fill-opacity:1;fill-rule:nonzero;stroke:none;stroke-width:2;stroke-linecap:butt;stroke-linejoin:bevel;stroke-miterlimit:4;stroke-dasharray:none;stroke-dashoffset:0;stroke-opacity:1;color-rendering:auto;image-rendering:auto;shape-rendering:auto;text-rendering:auto;enable-background:accumulate" />
      <path
         inkscape:connector-curvature="0"
         id="rect906"
         d="m 101.11406,110.57137 h 3.50474 v 17.5237 h -3.50474 z"
         style="opacity:1;fill:#003366;fill-opacity:1;stroke:none;stroke-width:0.70555556;stroke-linecap:butt;stroke-linejoin:bevel;stroke-miterlimit:4;stroke-dasharray:none;stroke-dashoffset:0;stroke-opacity:1" />
      <g
         transform="translate(1,-8)"
         id="g1297">
        <path
           style="color:#000000;font-style:normal;font-variant:normal;font-weight:normal;font-stretch:normal;font-size:medium;line-height:normal;font-family:sans-serif;font-variant-ligatures:normal;font-variant-position:normal;font-variant-caps:normal;font-variant-numeric:normal;font-variant-alternates:normal;font-feature-settings:normal;text-indent:0;text-align:start;text-decoration:none;text-decoration-line:none;text-decoration-style:solid;text-decoration-color:#000000;letter-spacing:normal;word-spacing:normal;text-transform:none;writing-mode:lr-tb;direction:ltr;text-orientation:mixed;dominant-baseline:auto;baseline-shift:baseline;text-anchor:start;white-space:normal;shape-padding:0;clip-rule:nonzero;display:inline;overflow:visible;visibility:visible;opacity:1;isolation:auto;mix-blend-mode:normal;color-interpolation:sRGB;color-interpolation-filters:linearRGB;solid-color:#000000;solid-opacity:1;vector-effect:none;fill:#003366;fill-opacity:1;fill-rule:nonzero;stroke:none;stroke-width:2;stroke-linecap:butt;stroke-linejoin:bevel;stroke-miterlimit:4;stroke-dasharray:none;stroke-dashoffset:0;stroke-opacity:1;color-rendering:auto;image-rendering:auto;shape-rendering:auto;text-rendering:auto;enable-background:accumulate"
           d="m 115.20478,118.53754 c -4.81829,-1e-5 -8.76186,3.94357 -8.76186,8.76185 0,4.81829 3.94357,8.76186 8.76186,8.76185 4.81828,0 8.76185,-3.94357 8.76185,-8.76185 0,-4.81828 -3.94357,-8.76185 -8.76185,-8.76185 z m 0,3.50474 c 2.92418,0 5.25711,2.33293 5.25711,5.25711 0,2.92418 -2.33293,5.25711 -5.25711,5.25711 -2.92418,1e-5 -5.25712,-2.33293 -5.25712,-5.25711 0,-2.92418 2.33294,-5.25711 5.25712,-5.25711 z"
           id="circle908"
           inkscape:connector-curvature="0" />
        <path
           style="opacity:1;fill:#003366;fill-opacity:1;stroke:none;stroke-width:0.70555556;stroke-linecap:butt;stroke-linejoin:bevel;stroke-miterlimit:4;stroke-dasharray:none;stroke-dashoffset:0;stroke-opacity:1"
           d="m 109.93351,118.54066 h -3.50474 v 27.40646 h 3.50474 z"
           id="rect910"
           inkscape:connector-curvature="0" />
      </g>
      <g
         transform="translate(-1.5,-8)"
         id="g1301">
        <path
           style="color:#000000;font-style:normal;font-variant:normal;font-weight:normal;font-stretch:normal;font-size:medium;line-height:normal;font-family:sans-serif;font-variant-ligatures:normal;font-variant-position:normal;font-variant-caps:normal;font-variant-numeric:normal;font-variant-alternates:normal;font-feature-settings:normal;text-indent:0;text-align:start;text-decoration:none;text-decoration-line:none;text-decoration-style:solid;text-decoration-color:#000000;letter-spacing:normal;word-spacing:normal;text-transform:none;writing-mode:lr-tb;direction:ltr;text-orientation:mixed;dominant-baseline:auto;baseline-shift:baseline;text-anchor:start;white-space:normal;shape-padding:0;clip-rule:nonzero;display:inline;overflow:visible;visibility:visible;opacity:1;isolation:auto;mix-blend-mode:normal;color-interpolation:sRGB;color-interpolation-filters:linearRGB;solid-color:#000000;solid-opacity:1;vector-effect:none;fill:#003366;fill-opacity:1;fill-rule:nonzero;stroke:none;stroke-width:2;stroke-linecap:butt;stroke-linejoin:bevel;stroke-miterlimit:4;stroke-dasharray:none;stroke-dashoffset:0;stroke-opacity:1;color-rendering:auto;image-rendering:auto;shape-rendering:auto;text-rendering:auto;enable-background:accumulate"
           d="m 137.10941,118.53754 c -4.81828,0 -8.76185,3.94357 -8.76185,8.76185 0,4.81828 3.94357,8.76185 8.76185,8.76185 4.81828,0 8.76185,-3.94357 8.76185,-8.76185 0,-4.81828 -3.94357,-8.76185 -8.76185,-8.76185 z m 0,3.50474 c 2.92418,0 5.25711,2.33293 5.25711,5.25711 0,2.92418 -2.33293,5.25711 -5.25711,5.25711 -2.92418,0 -5.25711,-2.33293 -5.25711,-5.25711 0,-2.92418 2.33293,-5.25711 5.25711,-5.25711 z"
           id="circle912"
           inkscape:connector-curvature="0" />
        <path
           style="opacity:1;fill:#003366;fill-opacity:1;stroke:none;stroke-width:0.70555556;stroke-linecap:butt;stroke-linejoin:bevel;stroke-miterlimit:4;stroke-dasharray:none;stroke-dashoffset:0;stroke-opacity:1"
           d="m 131.76005,118.57137 h -3.50474 v 27.40646 h 3.50474 z"
           id="rect914"
           inkscape:connector-curvature="0" />
      </g>
      <path
         inkscape:connector-curvature="0"
         id="rect916"
         d="m 153.98541,124.57007 h 3.50474 v 3.50474 h -3.50474 z"
         style="opacity:1;fill:#003366;fill-opacity:1;stroke:none;stroke-width:0.70555556;stroke-linecap:butt;stroke-linejoin:bevel;stroke-miterlimit:4;stroke-dasharray:none;stroke-dashoffset:0;stroke-opacity:1" />
      <path
         inkscape:connector-curvature="0"
         id="rect918"
         d="m 153.98541,110.57137 h 3.50475 v 3.50474 h -3.50475 z"
         style="opacity:1;fill:#003366;fill-opacity:1;stroke:none;stroke-width:0.70555556;stroke-linecap:butt;stroke-linejoin:bevel;stroke-miterlimit:4;stroke-dasharray:none;stroke-dashoffset:0;stroke-opacity:1" />
      <path
         inkscape:connector-curvature="0"
         id="rect924"
         d="m 167.1282,124.57007 h 3.50474 v 3.50474 h -3.50474 z"
         style="opacity:1;fill:#003366;fill-opacity:1;stroke:none;stroke-width:0.70555556;stroke-linecap:butt;stroke-linejoin:bevel;stroke-miterlimit:4;stroke-dasharray:none;stroke-dashoffset:0;stroke-opacity:1" />
      <path
         inkscape:connector-curvature="0"
         id="rect926"
         d="m 167.1282,110.57137 h 3.50474 v 3.50474 h -3.50474 z"
         style="opacity:1;fill:#003366;fill-opacity:1;stroke:none;stroke-width:0.70555556;stroke-linecap:butt;stroke-linejoin:bevel;stroke-miterlimit:4;stroke-dasharray:none;stroke-dashoffset:0;stroke-opacity:1" />
      <g
         transform="translate(3.5,-8)"
         id="g1281">
        <path
           style="color:#000000;font-style:normal;font-variant:normal;font-weight:normal;font-stretch:normal;font-size:medium;line-height:normal;font-family:sans-serif;font-variant-ligatures:normal;font-variant-position:normal;font-variant-caps:normal;font-variant-numeric:normal;font-variant-alternates:normal;font-feature-settings:normal;text-indent:0;text-align:start;text-decoration:none;text-decoration-line:none;text-decoration-style:solid;text-decoration-color:#000000;letter-spacing:normal;word-spacing:normal;text-transform:none;writing-mode:lr-tb;direction:ltr;text-orientation:mixed;dominant-baseline:auto;baseline-shift:baseline;text-anchor:start;white-space:normal;shape-padding:0;clip-rule:nonzero;display:inline;overflow:visible;visibility:visible;opacity:1;isolation:auto;mix-blend-mode:normal;color-interpolation:sRGB;color-interpolation-filters:linearRGB;solid-color:#000000;solid-opacity:1;vector-effect:none;fill:#003366;fill-opacity:1;fill-rule:nonzero;stroke:none;stroke-width:2;stroke-linecap:butt;stroke-linejoin:bevel;stroke-miterlimit:4;stroke-dasharray:none;stroke-dashoffset:0;stroke-opacity:1;color-rendering:auto;image-rendering:auto;shape-rendering:auto;text-rendering:auto;enable-background:accumulate"
           d="m 92.453089,148.94712 c -4.818281,0 -8.761852,3.94357 -8.761852,8.76185 0,4.81829 3.943571,8.76185 8.761852,8.76185 2.409137,0 4.611295,-0.98332 6.194905,-2.56694 l -2.477962,-2.47795 c -0.953332,0.95332 -2.254845,1.54015 -3.716943,1.54015 -2.92418,0 -5.257111,-2.33293 -5.257111,-5.25711 0,-2.92418 2.332931,-5.25711 5.257111,-5.25711 1.462087,0 2.763604,0.58685 3.716943,1.54018 l 2.477962,-2.47796 c -1.583603,-1.58358 -3.785758,-2.56696 -6.194905,-2.56696 z"
           id="circle904-8"
           inkscape:connector-curvature="0" />
        <path
           style="opacity:1;fill:#003366;fill-opacity:1;stroke:none;stroke-width:0.70555556;stroke-linecap:butt;stroke-linejoin:bevel;stroke-miterlimit:4;stroke-dasharray:none;stroke-dashoffset:0;stroke-opacity:1"
           d="m 132.66915,157.6793 h 3.50474 v 9.12267 h -3.50474 z"
           id="rect906-8"
           inkscape:connector-curvature="0" />
        <path
           style="color:#000000;font-style:normal;font-variant:normal;font-weight:normal;font-stretch:normal;font-size:medium;line-height:normal;font-family:sans-serif;font-variant-ligatures:normal;font-variant-position:normal;font-variant-caps:normal;font-variant-numeric:normal;font-variant-alternates:normal;font-feature-settings:normal;text-indent:0;text-align:start;text-decoration:none;text-decoration-line:none;text-decoration-style:solid;text-decoration-color:#000000;letter-spacing:normal;word-spacing:normal;text-transform:none;writing-mode:lr-tb;direction:ltr;text-orientation:mixed;dominant-baseline:auto;baseline-shift:baseline;text-anchor:start;white-space:normal;shape-padding:0;clip-rule:nonzero;display:inline;overflow:visible;visibility:visible;opacity:1;isolation:auto;mix-blend-mode:normal;color-interpolation:sRGB;color-interpolation-filters:linearRGB;solid-color:#000000;solid-opacity:1;vector-effect:none;fill:#003366;fill-opacity:1;fill-rule:nonzero;stroke:none;stroke-width:2;stroke-linecap:butt;stroke-linejoin:bevel;stroke-miterlimit:4;stroke-dasharray:none;stroke-dashoffset:0;stroke-opacity:1;color-rendering:auto;image-rendering:auto;shape-rendering:auto;text-rendering:auto;enable-background:accumulate"
           d="m 127.41152,148.94712 c -4.81829,0 -8.76186,3.94357 -8.76186,8.76185 h 3.50474 c 0,-2.92418 2.33294,-5.25711 5.25712,-5.25711 2.92418,0 5.25711,2.33293 5.25711,5.25711 h 3.50474 c 0,-4.81828 -3.94357,-8.76185 -8.76185,-8.76185 z"
           id="circle908-0"
           inkscape:connector-curvature="0" />
        <path
           style="opacity:1;fill:#003366;fill-opacity:1;stroke:none;stroke-width:0.70555556;stroke-linecap:butt;stroke-linejoin:bevel;stroke-miterlimit:4;stroke-dasharray:none;stroke-dashoffset:0;stroke-opacity:1"
           d="m 122.15637,148.97574 h -3.50474 v 17.81959 h 3.50474 z"
           id="rect910-3"
           inkscape:connector-curvature="0" />
        <path
           style="opacity:1;fill:#003366;fill-opacity:1;stroke:none;stroke-width:0.70555556;stroke-linecap:butt;stroke-linejoin:bevel;stroke-miterlimit:4;stroke-dasharray:none;stroke-dashoffset:0;stroke-opacity:1"
           d="m 143.95433,143.78236 h -3.50474 v 14.34396 h 3.50474 z"
           id="rect914-0"
           inkscape:connector-curvature="0" />
        <path
           style="opacity:1;fill:#003366;fill-opacity:1;stroke:none;stroke-width:0.70555556;stroke-linecap:butt;stroke-linejoin:bevel;stroke-miterlimit:4;stroke-dasharray:none;stroke-dashoffset:0;stroke-opacity:1"
           d="m 161.17148,148.98194 h -3.50474 v 17.82002 h 3.50474 z"
           id="rect993"
           inkscape:connector-curvature="0" />
        <path
           style="color:#000000;font-style:normal;font-variant:normal;font-weight:normal;font-stretch:normal;font-size:medium;line-height:normal;font-family:sans-serif;font-variant-ligatures:normal;font-variant-position:normal;font-variant-caps:normal;font-variant-numeric:normal;font-variant-alternates:normal;font-feature-settings:normal;text-indent:0;text-align:start;text-decoration:none;text-decoration-line:none;text-decoration-style:solid;text-decoration-color:#000000;letter-spacing:normal;word-spacing:normal;text-transform:none;writing-mode:lr-tb;direction:ltr;text-orientation:mixed;dominant-baseline:auto;baseline-shift:baseline;text-anchor:start;white-space:normal;shape-padding:0;clip-rule:nonzero;display:inline;overflow:visible;visibility:visible;opacity:1;isolation:auto;mix-blend-mode:normal;color-interpolation:sRGB;color-interpolation-filters:linearRGB;solid-color:#000000;solid-opacity:1;vector-effect:none;fill:#003366;fill-opacity:1;fill-rule:nonzero;stroke:none;stroke-width:2;stroke-linecap:butt;stroke-linejoin:bevel;stroke-miterlimit:4;stroke-dasharray:none;stroke-dashoffset:0;stroke-opacity:1;color-rendering:auto;image-rendering:auto;shape-rendering:auto;text-rendering:auto;enable-background:accumulate"
           d="m 181.8856,148.94712 c -4.81828,0 -8.76185,3.94357 -8.76185,8.76185 0,4.81829 3.94357,8.76185 8.76185,8.76185 4.81827,0 8.76185,-3.94356 8.76185,-8.76185 0,-4.81828 -3.94358,-8.76185 -8.76185,-8.76185 z m 0,3.50474 c 2.92416,0 5.25711,2.33293 5.25711,5.25711 0,2.92418 -2.33295,5.25711 -5.25711,5.25711 -2.92418,0 -5.25711,-2.33293 -5.25711,-5.25711 0,-2.92418 2.33293,-5.25711 5.25711,-5.25711 z"
           id="circle995"
           inkscape:connector-curvature="0" />
        <path
           style="opacity:1;fill:#003366;fill-opacity:1;stroke:none;stroke-width:0.70555556;stroke-linecap:butt;stroke-linejoin:bevel;stroke-miterlimit:4;stroke-dasharray:none;stroke-dashoffset:0;stroke-opacity:1"
           d="m 196.15319,139.39551 h -3.50474 v 27.40646 h 3.50474 z"
           id="rect997"
           inkscape:connector-curvature="0" />
        <path
           style="color:#000000;font-style:normal;font-variant:normal;font-weight:normal;font-stretch:normal;font-size:medium;line-height:normal;font-family:sans-serif;font-variant-ligatures:normal;font-variant-position:normal;font-variant-caps:normal;font-variant-numeric:normal;font-variant-alternates:normal;font-feature-settings:normal;text-indent:0;text-align:start;text-decoration:none;text-decoration-line:none;text-decoration-style:solid;text-decoration-color:#000000;letter-spacing:normal;word-spacing:normal;text-transform:none;writing-mode:lr-tb;direction:ltr;text-orientation:mixed;dominant-baseline:auto;baseline-shift:baseline;text-anchor:start;white-space:normal;shape-padding:0;clip-rule:nonzero;display:inline;overflow:visible;visibility:visible;opacity:1;isolation:auto;mix-blend-mode:normal;color-interpolation:sRGB;color-interpolation-filters:linearRGB;solid-color:#000000;solid-opacity:1;vector-effect:none;fill:#003366;fill-opacity:1;fill-rule:nonzero;stroke:none;stroke-width:2;stroke-linecap:butt;stroke-linejoin:bevel;stroke-miterlimit:4;stroke-dasharray:none;stroke-dashoffset:0;stroke-opacity:1;color-rendering:auto;image-rendering:auto;shape-rendering:auto;text-rendering:auto;enable-background:accumulate"
           d="m 108.69332,149.262 c -4.81828,0 -8.761851,3.94357 -8.761851,8.76186 0,4.81828 3.943571,8.76185 8.761851,8.76185 4.81829,0 8.76186,-3.94357 8.76186,-8.76185 0,-4.81829 -3.94357,-8.76186 -8.76186,-8.76186 z m 0,3.50474 c 2.92418,0 5.25712,2.33294 5.25712,5.25712 0,2.92418 -2.33294,5.25711 -5.25712,5.25711 -2.92418,0 -5.25711,-2.33293 -5.25711,-5.25711 0,-2.92418 2.33293,-5.25712 5.25711,-5.25712 z"
           id="circle999"
           inkscape:connector-curvature="0" />
        <path
           style="color:#000000;font-style:normal;font-variant:normal;font-weight:normal;font-stretch:normal;font-size:medium;line-height:normal;font-family:sans-serif;font-variant-ligatures:normal;font-variant-position:normal;font-variant-caps:normal;font-variant-numeric:normal;font-variant-alternates:normal;font-feature-settings:normal;text-indent:0;text-align:start;text-decoration:none;text-decoration-line:none;text-decoration-style:solid;text-decoration-color:#000000;letter-spacing:normal;word-spacing:normal;text-transform:none;writing-mode:lr-tb;direction:ltr;text-orientation:mixed;dominant-baseline:auto;baseline-shift:baseline;text-anchor:start;white-space:normal;shape-padding:0;clip-rule:nonzero;display:inline;overflow:visible;visibility:visible;opacity:1;isolation:auto;mix-blend-mode:normal;color-interpolation:sRGB;color-interpolation-filters:linearRGB;solid-color:#000000;solid-opacity:1;vector-effect:none;fill:#003366;fill-opacity:1;fill-rule:nonzero;stroke:none;stroke-width:2;stroke-linecap:butt;stroke-linejoin:bevel;stroke-miterlimit:4;stroke-dasharray:none;stroke-dashoffset:0;stroke-opacity:1;color-rendering:auto;image-rendering:auto;shape-rendering:auto;text-rendering:auto;enable-background:accumulate"
           d="m 166.42913,149.00159 c -4.81828,0 -8.76185,3.94357 -8.76185,8.76185 h 3.50474 c 0,-2.92418 2.33293,-5.25711 5.25711,-5.25711 1.46211,0 2.76361,0.58342 3.71695,1.53674 l 2.47796,-2.47796 c -1.58362,-1.58361 -3.78577,-2.56352 -6.19491,-2.56352 z"
           id="path1002"
           inkscape:connector-curvature="0" />
        <path
           style="color:#000000;font-style:normal;font-variant:normal;font-weight:normal;font-stretch:normal;font-size:medium;line-height:normal;font-family:sans-serif;font-variant-ligatures:normal;font-variant-position:normal;font-variant-caps:normal;font-variant-numeric:normal;font-variant-alternates:normal;font-feature-settings:normal;text-indent:0;text-align:start;text-decoration:none;text-decoration-line:none;text-decoration-style:solid;text-decoration-color:#000000;letter-spacing:normal;word-spacing:normal;text-transform:none;writing-mode:lr-tb;direction:ltr;text-orientation:mixed;dominant-baseline:auto;baseline-shift:baseline;text-anchor:start;white-space:normal;shape-padding:0;clip-rule:nonzero;display:inline;overflow:visible;visibility:visible;opacity:1;isolation:auto;mix-blend-mode:normal;color-interpolation:sRGB;color-interpolation-filters:linearRGB;solid-color:#000000;solid-opacity:1;vector-effect:none;fill:#003366;fill-opacity:1;fill-rule:nonzero;stroke:none;stroke-width:2;stroke-linecap:butt;stroke-linejoin:bevel;stroke-miterlimit:4;stroke-dasharray:none;stroke-dashoffset:0;stroke-opacity:1;color-rendering:auto;image-rendering:auto;shape-rendering:auto;text-rendering:auto;enable-background:accumulate"
           d="m 140.44819,158.12653 c 0,4.81828 3.94357,8.76185 8.76185,8.76185 2.40914,0 4.61473,-0.98336 6.19833,-2.56694 l -2.47796,-2.47796 c -0.95334,0.95332 -2.25828,1.54018 -3.72037,1.54016 -2.92418,0 -5.25711,-2.33291 -5.25711,-5.25711 z"
           id="path1004"
           inkscape:connector-curvature="0" />
        <path
           style="opacity:1;fill:#003366;fill-opacity:1;stroke:none;stroke-width:0.70555562;stroke-linecap:butt;stroke-linejoin:bevel;stroke-miterlimit:4;stroke-dasharray:none;stroke-dashoffset:0;stroke-opacity:1"
           d="m 154.02929,152.48669 v -3.50474 h -16.65911 v 3.50474 z"
           id="rect1006"
           inkscape:connector-curvature="0" />
      </g>
    </g>
  </g>
</svg>
