<?xml version="1.0" encoding="UTF-8" standalone="no"?>
<!-- Created with Inkscape (http://www.inkscape.org/) -->

<svg
   xmlns:dc="http://purl.org/dc/elements/1.1/"
   xmlns:cc="http://creativecommons.org/ns#"
   xmlns:rdf="http://www.w3.org/1999/02/22-rdf-syntax-ns#"
   xmlns:svg="http://www.w3.org/2000/svg"
   xmlns="http://www.w3.org/2000/svg"
   xmlns:sodipodi="http://sodipodi.sourceforge.net/DTD/sodipodi-0.dtd"
   xmlns:inkscape="http://www.inkscape.org/namespaces/inkscape"
   width="61.794682mm"
   height="61.294449mm"
   viewBox="0 0 61.794682 61.294449"
   version="1.1"
   id="svg8"
   inkscape:version="0.92.5 (2060ec1f9f, 2020-04-08)"
   sodipodi:docname="appcontrol-logo-fin-logo-only.svg">
  <defs
     id="defs2" />
  <sodipodi:namedview
     id="base"
     pagecolor="#ffffff"
     bordercolor="#666666"
     borderopacity="1.0"
     inkscape:pageopacity="0.0"
     inkscape:pageshadow="2"
     inkscape:zoom="0.27787248"
     inkscape:cx="83.114802"
     inkscape:cy="110.66306"
     inkscape:document-units="mm"
     inkscape:current-layer="layer1"
     showgrid="false"
     inkscape:window-width="1280"
     inkscape:window-height="1313"
     inkscape:window-x="3200"
     inkscape:window-y="34"
     inkscape:window-maximized="0"
     showguides="false"
     inkscape:guide-bbox="true"
     fit-margin-top="0"
     fit-margin-left="0"
     fit-margin-right="0"
     fit-margin-bottom="0">
    <sodipodi:guide
       position="-240.17018,-3.6229371"
       orientation="1,0"
       id="guide1283"
       inkscape:locked="false" />
    <sodipodi:guide
       position="-96.430621,-68.845065"
       orientation="1,0"
       id="guide862"
       inkscape:locked="false" />
    <sodipodi:guide
       position="-80.819791,-54.621864"
       orientation="1,0"
       id="guide864"
       inkscape:locked="false" />
    <sodipodi:guide
       position="-65.440233,-51.846605"
       orientation="1,0"
       id="guide866"
       inkscape:locked="false" />
    <sodipodi:guide
       position="-49.713768,-99.719817"
       orientation="1,0"
       id="guide868"
       inkscape:locked="false" />
    <sodipodi:guide
       position="7.7425186,-68.753448"
       orientation="0,1"
       id="guide870"
       inkscape:locked="false" />
    <sodipodi:guide
       position="29.171219,-86.205686"
       orientation="0,1"
       id="guide872"
       inkscape:locked="false" />
    <sodipodi:guide
       position="36.387759,-63.635598"
       orientation="0,1"
       id="guide874"
       inkscape:locked="false" />
    <sodipodi:guide
       position="14.495969,-99.164025"
       orientation="0,1"
       id="guide876"
       inkscape:locked="false" />
    <sodipodi:guide
       position="-8.2678792,-116.44854"
       orientation="0,1"
       id="guide878"
       inkscape:locked="false" />
    <sodipodi:guide
       position="-17.639656,-55.07258"
       orientation="0,1"
       id="guide888"
       inkscape:locked="false" />
  </sodipodi:namedview>
  <metadata
     id="metadata5">
    <rdf:RDF>
      <cc:Work
         rdf:about="">
        <dc:format>image/svg+xml</dc:format>
        <dc:type
           rdf:resource="http://purl.org/dc/dcmitype/StillImage" />
        <dc:title></dc:title>
      </cc:Work>
    </rdf:RDF>
  </metadata>
  <g
     inkscape:label="Layer 1"
     inkscape:groupmode="layer"
     id="layer1"
     transform="translate(-115.77468,12.976528)">
    <g
       id="g884"
       transform="matrix(-1,0,0,1,293.34404,0)">
      <path
         inkscape:connector-curvature="0"
         id="rect815-3"
         d="M 131.27503,2.5233022 V 17.817972 h 15.29416 V 2.5233022 Z m 7.70857,2.44223 c 2.74958,0 4.9997,2.25063 4.9997,5.00021 0,2.7495798 -2.25012,5.0002098 -4.9997,5.0002098 -2.74958,0 -5.00021,-2.25063 -5.00021,-5.0002098 0,-2.74958 2.25063,-5.00021 5.00021,-5.00021 z m 0,2.00039 c -1.6687,0 -3.00033,1.33112 -3.00033,2.99982 0,1.6686998 1.33163,2.9998198 3.00033,2.9998198 1.6687,0 2.99982,-1.33112 2.99982,-2.9998198 0,-1.6687 -1.33112,-2.99982 -2.99982,-2.99982 z"
         style="opacity:1;fill:#0044aa;fill-opacity:1;stroke:none;stroke-width:0.70555562;stroke-linecap:butt;stroke-linejoin:bevel;stroke-miterlimit:4;stroke-dasharray:none;stroke-dashoffset:0;stroke-opacity:1" />
      <path
         inkscape:connector-curvature="0"
         id="path833"
         d="M 115.77468,-12.976528 V 2.3181422 h 15.29468 V -12.976528 Z m 6.59805,2.15542 h 1.99988 v 9.99991016 h -1.99988 z"
         style="opacity:1;fill:#0044aa;fill-opacity:1;stroke:none;stroke-width:0.70555562;stroke-linecap:butt;stroke-linejoin:bevel;stroke-miterlimit:4;stroke-dasharray:none;stroke-dashoffset:0;stroke-opacity:1" />
      <path
         inkscape:connector-curvature="0"
         id="path835"
         d="M 162.27469,2.5233022 V 17.817972 h 15.29467 V 2.5233022 Z m 7.81451,2.44223 c 2.74958,0 5.00021,2.25063 5.00021,5.00021 0,2.7495798 -2.25063,5.0002098 -5.00021,5.0002098 -2.74958,0 -4.9997,-2.25063 -4.9997,-5.0002098 0,-2.74958 2.25012,-5.00021 4.9997,-5.00021 z m 0,2.00039 c -1.6687,0 -2.99982,1.33112 -2.99982,2.99982 0,1.6686998 1.33112,2.9998198 2.99982,2.9998198 1.6687,0 3.00033,-1.33112 3.00033,-2.9998198 0,-1.6687 -1.33163,-2.99982 -3.00033,-2.99982 z"
         style="opacity:1;fill:#0044aa;fill-opacity:1;stroke:none;stroke-width:0.70555562;stroke-linecap:butt;stroke-linejoin:bevel;stroke-miterlimit:4;stroke-dasharray:none;stroke-dashoffset:0;stroke-opacity:1" />
      <path
         inkscape:connector-curvature="0"
         id="path837"
         d="M 146.77486,-12.976528 V 2.3181422 h 15.29416 V -12.976528 Z m 7.58817,2.15542 c 2.74958,0 4.99969,2.2501302 4.99969,4.9997002 0,2.74958 -2.25011,5.00020996 -4.99969,5.00020996 -2.74958,0 -5.00022,-2.25062996 -5.00022,-5.00020996 0,-2.74957 2.25064,-4.9997002 5.00022,-4.9997002 z m 0,1.9998802 c -1.6687,0 -2.99982,1.33113 -2.99982,2.99982 0,1.6687 1.33112,3.00033 2.99982,3.00033 1.66869,0 2.99981,-1.33163 2.99981,-3.00033 0,-1.66869 -1.33112,-2.99982 -2.99981,-2.99982 z"
         style="opacity:1;fill:#0044aa;fill-opacity:1;stroke:none;stroke-width:0.70555562;stroke-linecap:butt;stroke-linejoin:bevel;stroke-miterlimit:4;stroke-dasharray:none;stroke-dashoffset:0;stroke-opacity:1" />
      <path
         inkscape:connector-curvature="0"
         id="path858"
         d="m 131.27503,33.023252 v 15.29467 h 15.29416 v -15.29467 z m 7.70857,2.46651 c 2.74958,0 4.9997,2.25063 4.9997,5.00021 0,2.74958 -2.25012,4.9997 -4.9997,4.9997 -2.74958,0 -5.00021,-2.25012 -5.00021,-4.9997 0,-2.74958 2.25063,-5.00021 5.00021,-5.00021 z m 0,1.99988 c -1.6687,0 -3.00033,1.33163 -3.00033,3.00033 0,1.6687 1.33163,2.99982 3.00033,2.99982 1.6687,0 2.99982,-1.33112 2.99982,-2.99982 0,-1.6687 -1.33112,-3.00033 -2.99982,-3.00033 z"
         style="opacity:1;fill:#0044aa;fill-opacity:1;stroke:none;stroke-width:0.70555562;stroke-linecap:butt;stroke-linejoin:bevel;stroke-miterlimit:4;stroke-dasharray:none;stroke-dashoffset:0;stroke-opacity:1" />
      <path
         inkscape:connector-curvature="0"
         id="path860"
         d="m 115.77468,17.523422 v 15.29467 h 15.29468 v -15.29467 z m 7.59799,2.35954 c 2.74958,0 4.99969,2.25063 4.99969,5.00021 0,2.74958 -2.25011,5.00022 -4.99969,5.00022 -2.74958,0 -5.00021,-2.25064 -5.00021,-5.00022 0,-2.74958 2.25063,-5.00021 5.00021,-5.00021 z m 0,2.0004 c -1.6687,0 -3.00033,1.33112 -3.00033,2.99981 0,1.6687 1.33163,2.99982 3.00033,2.99982 1.6687,0 2.99982,-1.33112 2.99982,-2.99982 0,-1.66869 -1.33112,-2.99981 -2.99982,-2.99981 z"
         style="opacity:1;fill:#0044aa;fill-opacity:1;stroke:none;stroke-width:0.70555562;stroke-linecap:butt;stroke-linejoin:bevel;stroke-miterlimit:4;stroke-dasharray:none;stroke-dashoffset:0;stroke-opacity:1" />
      <path
         inkscape:connector-curvature="0"
         id="path862"
         d="m 162.27469,33.023252 v 15.29467 h 15.29467 v -15.29467 z m 6.81457,2.46651 h 2.00039 v 9.99991 h -2.00039 z"
         style="opacity:1;fill:#0044aa;fill-opacity:1;stroke:none;stroke-width:0.70555562;stroke-linecap:butt;stroke-linejoin:bevel;stroke-miterlimit:4;stroke-dasharray:none;stroke-dashoffset:0;stroke-opacity:1" />
      <path
         inkscape:connector-curvature="0"
         id="path864"
         d="m 146.77486,17.523422 v 15.29467 h 15.29416 v -15.29467 z m 7.58817,2.35954 c 2.74958,0 4.99969,2.25063 4.99969,5.00021 0,2.74958 -2.25011,5.00022 -4.99969,5.00022 -2.74958,0 -5.00022,-2.25064 -5.00022,-5.00022 0,-2.74958 2.25064,-5.00021 5.00022,-5.00021 z m 0,2.0004 c -1.6687,0 -2.99982,1.33112 -2.99982,2.99981 0,1.6687 1.33112,2.99982 2.99982,2.99982 1.66869,0 2.99981,-1.33112 2.99981,-2.99982 0,-1.66869 -1.33112,-2.99981 -2.99981,-2.99981 z"
         style="opacity:1;fill:#0044aa;fill-opacity:1;stroke:none;stroke-width:0.70555562;stroke-linecap:butt;stroke-linejoin:bevel;stroke-miterlimit:4;stroke-dasharray:none;stroke-dashoffset:0;stroke-opacity:1" />
      <rect
         y="-10.8212"
         x="137.9834"
         height="10"
         width="2"
         id="rect866"
         style="opacity:1;fill:#0044aa;fill-opacity:1;stroke:none;stroke-width:0.70555556;stroke-linecap:butt;stroke-linejoin:bevel;stroke-miterlimit:4;stroke-dasharray:none;stroke-dashoffset:0;stroke-opacity:1" />
      <path
         inkscape:connector-curvature="0"
         id="path868"
         d="m 170.08943,-10.821198 c -2.74958,0 -5,2.2504202 -5,5.0000002 0,2.74958 2.25042,4.99999996 5,4.99999996 2.74958,0 5,-2.25041996 5,-4.99999996 0,-2.74958 -2.25042,-5.0000002 -5,-5.0000002 z m 0,2.0000002 c 1.6687,0 3,1.3313 3,3 0,1.6687 -1.3313,3 -3,3 -1.6687,0 -3,-1.3313 -3,-3 0,-1.6687 1.3313,-3 3,-3 z"
         style="color:#000000;font-style:normal;font-variant:normal;font-weight:normal;font-stretch:normal;font-size:medium;line-height:normal;font-family:sans-serif;font-variant-ligatures:normal;font-variant-position:normal;font-variant-caps:normal;font-variant-numeric:normal;font-variant-alternates:normal;font-feature-settings:normal;text-indent:0;text-align:start;text-decoration:none;text-decoration-line:none;text-decoration-style:solid;text-decoration-color:#000000;letter-spacing:normal;word-spacing:normal;text-transform:none;writing-mode:lr-tb;direction:ltr;text-orientation:mixed;dominant-baseline:auto;baseline-shift:baseline;text-anchor:start;white-space:normal;shape-padding:0;clip-rule:nonzero;display:inline;overflow:visible;visibility:visible;opacity:1;isolation:auto;mix-blend-mode:normal;color-interpolation:sRGB;color-interpolation-filters:linearRGB;solid-color:#000000;solid-opacity:1;vector-effect:none;fill:#0044aa;fill-opacity:1;fill-rule:nonzero;stroke:none;stroke-width:2;stroke-linecap:butt;stroke-linejoin:bevel;stroke-miterlimit:4;stroke-dasharray:none;stroke-dashoffset:0;stroke-opacity:1;color-rendering:auto;image-rendering:auto;shape-rendering:auto;text-rendering:auto;enable-background:accumulate" />
      <rect
         style="opacity:1;fill:#0044aa;fill-opacity:1;stroke:none;stroke-width:0.70555556;stroke-linecap:butt;stroke-linejoin:bevel;stroke-miterlimit:4;stroke-dasharray:none;stroke-dashoffset:0;stroke-opacity:1"
         id="rect874"
         width="2"
         height="10"
         x="122.37257"
         y="4.9657412" />
      <rect
         style="opacity:1;fill:#0044aa;fill-opacity:1;stroke:none;stroke-width:0.70555556;stroke-linecap:butt;stroke-linejoin:bevel;stroke-miterlimit:4;stroke-dasharray:none;stroke-dashoffset:0;stroke-opacity:1"
         id="rect880"
         width="2"
         height="10"
         x="137.9834"
         y="20.267424" />
      <path
         inkscape:connector-curvature="0"
         id="circle882"
         d="m 123.37257,35.489732 c -2.74958,0 -5,2.25042 -5,5 0,2.74958 2.25042,5 5,5 2.74958,0 5,-2.25042 5,-5 0,-2.74958 -2.25042,-5 -5,-5 z m 0,2 c 1.6687,0 3,1.3313 3,3 0,1.6687 -1.3313,3 -3,3 -1.66869,0 -3,-1.3313 -3,-3 0,-1.6687 1.33131,-3 3,-3 z"
         style="color:#000000;font-style:normal;font-variant:normal;font-weight:normal;font-stretch:normal;font-size:medium;line-height:normal;font-family:sans-serif;font-variant-ligatures:normal;font-variant-position:normal;font-variant-caps:normal;font-variant-numeric:normal;font-variant-alternates:normal;font-feature-settings:normal;text-indent:0;text-align:start;text-decoration:none;text-decoration-line:none;text-decoration-style:solid;text-decoration-color:#000000;letter-spacing:normal;word-spacing:normal;text-transform:none;writing-mode:lr-tb;direction:ltr;text-orientation:mixed;dominant-baseline:auto;baseline-shift:baseline;text-anchor:start;white-space:normal;shape-padding:0;clip-rule:nonzero;display:inline;overflow:visible;visibility:visible;opacity:1;isolation:auto;mix-blend-mode:normal;color-interpolation:sRGB;color-interpolation-filters:linearRGB;solid-color:#000000;solid-opacity:1;vector-effect:none;fill:#0044aa;fill-opacity:1;fill-rule:nonzero;stroke:none;stroke-width:2;stroke-linecap:butt;stroke-linejoin:bevel;stroke-miterlimit:4;stroke-dasharray:none;stroke-dashoffset:0;stroke-opacity:1;color-rendering:auto;image-rendering:auto;shape-rendering:auto;text-rendering:auto;enable-background:accumulate" />
      <rect
         y="35.489727"
         x="153.36296"
         height="10"
         width="2"
         id="rect886"
         style="opacity:1;fill:#0044aa;fill-opacity:1;stroke:none;stroke-width:0.70555556;stroke-linecap:butt;stroke-linejoin:bevel;stroke-miterlimit:4;stroke-dasharray:none;stroke-dashoffset:0;stroke-opacity:1" />
      <rect
         style="opacity:1;fill:#0044aa;fill-opacity:1;stroke:none;stroke-width:0.70555556;stroke-linecap:butt;stroke-linejoin:bevel;stroke-miterlimit:4;stroke-dasharray:none;stroke-dashoffset:0;stroke-opacity:1"
         id="rect890"
         width="2"
         height="10"
         x="153.36296"
         y="4.9657412" />
      <rect
         y="20.267424"
         x="169.08943"
         height="10"
         width="2"
         id="rect894"
         style="opacity:1;fill:#0044aa;fill-opacity:1;stroke:none;stroke-width:0.70555556;stroke-linecap:butt;stroke-linejoin:bevel;stroke-miterlimit:4;stroke-dasharray:none;stroke-dashoffset:0;stroke-opacity:1" />
    </g>
  </g>
</svg>
