<?xml version="1.0" encoding="iso-8859-1"?>
<!-- Generator: Adobe Illustrator 16.0.0, SVG Export Plug-In . SVG Version: 6.00 Build 0)  -->
<!DOCTYPE svg PUBLIC "-//W3C//DTD SVG 1.1//EN" "http://www.w3.org/Graphics/SVG/1.1/DTD/svg11.dtd">
<svg version="1.1" id="Capa_1" xmlns="http://www.w3.org/2000/svg" xmlns:xlink="http://www.w3.org/1999/xlink" x="0px" y="0px"
	 width="485.213px" height="485.212px" viewBox="0 0 485.213 485.212" style="enable-background:new 0 0 485.213 485.212;"
	 xml:space="preserve">
<g>
	<g>
		<path d="M348.746,121.304c0,58.621-47.502,151.626-106.139,151.626c-58.609,0-106.141-93.005-106.141-151.626
			C136.466,62.681,151.629,0,242.607,0C333.587,0,348.746,62.681,348.746,121.304z"/>
		<path d="M394.236,303.257h-30.327c-22.206,0-41.457-12.083-52.005-29.911c-19.961,18.183-43.413,29.911-69.297,29.911
			c-25.855,0-49.31-11.729-69.299-29.911c-10.559,17.828-29.778,29.911-52.003,29.911H90.979c0,0-54.964,15.158-90.978,90.979
			v60.649c0,16.764,13.564,30.326,30.327,30.326H454.89c16.759,0,30.322-13.562,30.322-30.326v-60.649
			C449.2,318.416,394.236,303.257,394.236,303.257z"/>
	</g>
</g>
<g>
</g>
<g>
</g>
<g>
</g>
<g>
</g>
<g>
</g>
<g>
</g>
<g>
</g>
<g>
</g>
<g>
</g>
<g>
</g>
<g>
</g>
<g>
</g>
<g>
</g>
<g>
</g>
<g>
</g>
</svg>
